<?xml version="1.0" encoding="utf-8"?>
<!-- Generator: Adobe Illustrator 21.1.0, SVG Export Plug-In . SVG Version: 6.00 Build 0)  -->
<svg version="1.1" id="Capa_1" xmlns="http://www.w3.org/2000/svg" xmlns:xlink="http://www.w3.org/1999/xlink" x="0px" y="0px"
	 viewBox="0 0 403 578.7" style="enable-background:new 0 0 403 578.7;" xml:space="preserve">
<style type="text/css">
	.st0{fill:#F4F4F4;stroke:#00BCFF;stroke-width:10;stroke-linecap:round;stroke-linejoin:round;stroke-miterlimit:10;}
	.st1{fill:#00BCFF;stroke:#00BCFF;stroke-width:8;stroke-linecap:round;stroke-linejoin:round;stroke-miterlimit:10;}
</style>
<g>
	<rect x="220.4" y="398.4" class="st0" width="26.8" height="57"/>
	<path class="st1" d="M255.7,444.2h-45.8c-12.4,52.2-58.8,79.8-114.5,81.1v24.4h274.7v-24.4C314.4,524,268.1,496.4,255.7,444.2z"/>
	<path class="st1" d="M233,406.8c-37.5,0-73.9-10.9-105.3-31.5c-32.2-21.1-57.1-51.1-71.9-86.8c-19.5-47.2-19.5-99.2,0.1-146.6
		s56.4-84.1,103.6-103.7c4.3-1.8,9.2,0.3,11,4.5l140.2,338.4c0.9,2.1,0.9,4.4,0,6.4c-0.9,2.1-2.5,3.7-4.5,4.5
		C282.7,401.9,258.1,406.8,233,406.8z M158.2,57.2c-39.4,18.5-70,50.6-86.8,91.2c-17.9,43.2-17.9,90.7-0.1,133.7
		C98.5,347.7,162,390,233,390c20.1,0,39.9-3.5,58.8-10.3L158.2,57.2z"/>
	<circle class="st0" cx="232.8" cy="215.3" r="137.3"/>
</g>
</svg>
