<?xml version="1.0" encoding="utf-8"?>
<!-- Generator: Adobe Illustrator 21.1.0, SVG Export Plug-In . SVG Version: 6.00 Build 0)  -->
<svg version="1.1" id="Capa_1" xmlns="http://www.w3.org/2000/svg" xmlns:xlink="http://www.w3.org/1999/xlink" x="0px" y="0px"
	 viewBox="0 0 553.3 351.5" style="enable-background:new 0 0 553.3 351.5;" xml:space="preserve">
<style type="text/css">
	.st0{fill:none;stroke:#00BCFF;stroke-width:8;stroke-linecap:round;stroke-linejoin:round;stroke-miterlimit:10;}
	.st1{fill:#00BCFF;stroke:#00BCFF;stroke-width:8;stroke-linecap:round;stroke-linejoin:round;stroke-miterlimit:10;}
	.st2{fill:#F4F4F4;stroke:#00BCFF;stroke-width:8;stroke-linecap:round;stroke-linejoin:round;stroke-miterlimit:10;}
	.st3{fill:#00BCFF;stroke:#00BCFF;stroke-linecap:round;stroke-linejoin:round;stroke-miterlimit:10;}
</style>
<g>
	<g>
		<line class="st0" x1="499.9" y1="322.6" x2="30.7" y2="322.6"/>
	</g>
	<rect x="75.1" y="206.8" class="st1" width="60.6" height="115.8"/>
	<rect x="172.3" y="141.8" class="st1" width="60.6" height="180.8"/>
	<rect x="269.6" y="166.8" class="st1" width="60.6" height="155.8"/>
	<rect x="366.9" y="96.8" class="st1" width="60.6" height="225.8"/>
	<circle class="st2" cx="453.7" cy="96.8" r="66.7"/>
	<g>
		<path class="st3" d="M458.9,91.8c8.7,2.6,18.2,5.9,18.1,17.5c0,9.5-7.3,15.7-18.1,16.9v12h-7.5v-11.9c-8.2-0.7-15.8-4.3-21.2-9.3
			l4.3-8.7c5.1,4.7,11.2,7.6,16.9,8.4v-17c-8.5-2.6-17.7-5.7-17.7-17c0-9.1,7-15.2,17.7-16.4V55.2h7.5v11.2c6.5,0.6,12.7,2.8,17.4,6
			l-4.2,8.9c-4.6-2.8-9.3-4.4-13.2-5.1V91.8z M451.4,89.3V75.9c-4,0.7-6.5,2.7-6.5,6C445,85.6,447.6,87.8,451.4,89.3z M458.9,116.8
			c4.4-0.9,7-3.3,7-6.9c0-4-2.9-6.1-7-7.7V116.8z"/>
	</g>
</g>
</svg>
