<?xml version="1.0" encoding="utf-8"?>
<!-- Generator: Adobe Illustrator 21.1.0, SVG Export Plug-In . SVG Version: 6.00 Build 0)  -->
<svg version="1.1" id="Capa_1" xmlns="http://www.w3.org/2000/svg" xmlns:xlink="http://www.w3.org/1999/xlink" x="0px" y="0px"
	 viewBox="0 0 154.4 32.8" style="enable-background:new 0 0 154.4 32.8;" xml:space="preserve">
<style type="text/css">
	.st0{fill:#00BDFF;}
</style>
<g>
	<g>
		<path class="st0" d="M71,12.2c0.1,1.5,1.3,1.8,1.8,1.8c1,0,1.8-0.7,1.8-1.7c0-1.3-1.1-1.6-2.2-1.9c-0.7-0.2-2.3-0.7-2.3-2.4
			c0-1.6,1.3-2.5,2.7-2.5c1.1,0,2.5,0.6,2.6,2.4h-1c-0.1-0.6-0.4-1.5-1.6-1.5c-0.9,0-1.7,0.6-1.7,1.6c0,1.1,0.9,1.4,2.3,1.9
			c0.9,0.3,2.2,0.8,2.2,2.5c0,1.5-1.1,2.7-2.8,2.7c-1.5,0-2.8-1-2.9-2.7H71V12.2z"/>
		<path class="st0" d="M83.7,14.7h-0.9v-1.4c-0.5,1-1.5,1.6-2.7,1.6c-2.2,0-3.5-1.7-3.5-3.5c0-2,1.4-3.5,3.5-3.5
			c1.4,0,2.4,0.8,2.7,1.6V8h0.9V14.7z M77.5,11.4c0,1.2,0.8,2.7,2.7,2.7c1.2,0,2-0.7,2.4-1.6c0.1-0.3,0.2-0.7,0.2-1.1
			c0-0.4-0.1-0.7-0.2-1.1c-0.4-0.9-1.3-1.6-2.4-1.6C78.6,8.7,77.5,9.9,77.5,11.4L77.5,11.4z"/>
		<path class="st0" d="M85.5,8h0.9v1.1c0.5-1,1.4-1.3,2.1-1.3v0.9h-0.1c-1.3,0-2,0.8-2,2.3v3.6h-0.9V8z"/>
		<path class="st0" d="M95.7,14.7h-0.9v-1.4c-0.5,1-1.5,1.6-2.7,1.6c-2.2,0-3.5-1.7-3.5-3.5c0-2,1.4-3.5,3.5-3.5
			c1.4,0,2.4,0.8,2.7,1.6V8h0.9V14.7z M89.5,11.4c0,1.2,0.8,2.7,2.7,2.7c1.2,0,2-0.7,2.4-1.6c0.1-0.3,0.2-0.7,0.2-1.1
			c0-0.4-0.1-0.7-0.2-1.1c-0.4-0.9-1.3-1.6-2.4-1.6C90.6,8.7,89.5,9.9,89.5,11.4L89.5,11.4z"/>
		<path class="st0" d="M108.6,7.9c-0.3-0.4-0.6-0.7-1-1c-0.6-0.4-1.3-0.6-2.1-0.6c-2,0-3.8,1.5-3.8,3.8s1.8,3.9,3.8,3.9
			c1,0,1.8-0.3,2.5-0.8c0.6-0.5,1.1-1.2,1.2-1.9h-4.6v-0.9h5.8c0,0.5-0.1,1.2-0.4,1.8c-0.8,1.7-2.6,2.7-4.5,2.7
			c-2.7,0-4.8-2.1-4.8-4.8c0-2.8,2.2-4.7,4.8-4.7c1.9,0,3.6,1,4.3,2.5H108.6z"/>
		<path class="st0" d="M117.7,14.7h-0.9v-1.2c-0.4,0.9-1.3,1.4-2.5,1.4c-2.1,0-2.8-1.5-2.8-3.1V8h0.9v3.6c0,1.4,0.6,2.4,2.1,2.4
			c1.4,0,2.2-0.8,2.2-2.2V8h0.9v6.7H117.7z"/>
		<path class="st0" d="M120,8.8h-1.3V8h1.3V5.5h0.9V8h1.5v0.7h-1.5v5.9H120V8.8z"/>
		<path class="st0" d="M123.4,5.5h0.9v1.3h-0.9V5.5z M123.4,8h0.9v6.7h-0.9V8z"/>
		<path class="st0" d="M126.5,11.6c0,1.7,1.5,2.5,2.6,2.5c1,0,1.9-0.5,2.3-1.4h1c-0.3,0.7-0.8,1.3-1.4,1.6c-0.6,0.4-1.2,0.5-1.9,0.5
			c-2.3,0-3.5-1.8-3.5-3.5c0-2,1.5-3.5,3.5-3.5c0.9,0,1.8,0.3,2.4,0.9c0.8,0.7,1.1,1.8,1,2.8L126.5,11.6L126.5,11.6z M131.7,10.9
			c-0.1-1.2-1.2-2.3-2.6-2.3c-1.4,0-2.5,1.1-2.6,2.3H131.7z M130.5,5l0.3,0.7l-3,1.6l-0.3-0.6L130.5,5z"/>
		<path class="st0" d="M133.9,8h0.9v1.1c0.5-1,1.4-1.3,2.1-1.3v0.9h-0.1c-1.3,0-2,0.8-2,2.3v3.6h-0.9V8z"/>
		<path class="st0" d="M137.9,8h0.9v1.1c0.5-1,1.4-1.3,2.1-1.3v0.9h-0.1c-1.3,0-2,0.8-2,2.3v3.6h-0.9V8z"/>
		<path class="st0" d="M141.8,11.6c0,1.7,1.5,2.5,2.6,2.5c1,0,1.9-0.5,2.3-1.4h1c-0.3,0.7-0.8,1.3-1.4,1.6c-0.6,0.4-1.2,0.5-1.9,0.5
			c-2.3,0-3.5-1.8-3.5-3.5c0-2,1.5-3.5,3.5-3.5c0.9,0,1.8,0.3,2.4,0.9c0.8,0.7,1.1,1.8,1,2.8L141.8,11.6L141.8,11.6z M147,10.9
			c-0.1-1.2-1.2-2.3-2.6-2.3s-2.5,1.1-2.6,2.3H147z"/>
		<path class="st0" d="M148.5,14l3.7-5.3h-3.5V8h4.6v0.7l-3.6,5.2h3.8v0.7h-4.9V14H148.5z"/>
		<path class="st0" d="M71.5,20.6h-2v-0.8h4.9v0.8h-2v7.3h-0.9V20.6z"/>
		<path class="st0" d="M75.3,19.8h2.1c1.3,0,1.9,0.2,2.3,0.4c0.7,0.4,1.1,1.3,1.1,2.2c0,0.6-0.1,1.1-0.5,1.6
			c-0.5,0.7-1.1,0.8-1.8,0.9l2,3h-1l-2.3-3.6h0.3c0.6,0,1.4,0,1.8-0.4s0.6-0.9,0.6-1.5s-0.3-1.2-0.8-1.6c-0.4-0.2-0.9-0.2-1.6-0.2
			h-1.3v7.3h-0.9C75.3,27.9,75.3,19.8,75.3,19.8z"/>
		<path class="st0" d="M82.1,27.9h-1l3.4-8.1h0.9l3.4,8.1h-1l-1-2.3H83L82.1,27.9z M84.9,20.8l-1.6,4.1h3.2L84.9,20.8z"/>
		<path class="st0" d="M89.6,19.8H92c1.2,0,2.4,0.3,3.2,1.2c0.7,0.7,1,1.7,1,2.8c0,2.5-1.4,4.1-4.1,4.1h-2.5V19.8z M90.5,27.1h1.6
			c2.1,0,3.2-1.3,3.2-3.2c0-0.9-0.3-1.8-0.8-2.4c-0.5-0.5-1.3-0.9-2.4-0.9h-1.6C90.5,20.6,90.5,27.1,90.5,27.1z"/>
		<path class="st0" d="M98.4,19.8V25c0,0.6,0,1.1,0.4,1.6c0.3,0.4,0.8,0.7,1.4,0.7s1.1-0.3,1.4-0.7c0.4-0.5,0.4-1,0.4-1.7v-5.2h0.9
			v5.2c0,0.9-0.1,1.9-0.9,2.5c-0.5,0.4-1.1,0.6-1.8,0.6c-0.6,0-1.3-0.2-1.8-0.6c-0.9-0.7-0.9-1.6-0.9-2.5v-5.2L98.4,19.8L98.4,19.8z
			"/>
		<path class="st0" d="M112.1,25.7c-0.5,1.3-1.9,2.3-3.7,2.3c-2.4,0-4.2-1.9-4.2-4.2s1.8-4.2,4.2-4.2c2,0,3.3,1.3,3.8,2.4h-1
			c-0.3-0.5-1.2-1.6-2.8-1.6c-1.9,0-3.3,1.5-3.3,3.4s1.4,3.4,3.3,3.4c1.7,0,2.6-1.2,2.8-1.5C111.2,25.7,112.1,25.7,112.1,25.7z"/>
		<path class="st0" d="M120.9,25.7c-0.5,1.3-1.9,2.3-3.7,2.3c-2.4,0-4.2-1.9-4.2-4.2s1.8-4.2,4.2-4.2c2,0,3.3,1.3,3.8,2.4h-1
			c-0.3-0.5-1.2-1.6-2.8-1.6c-1.9,0-3.3,1.5-3.3,3.4s1.4,3.4,3.3,3.4c1.7,0,2.6-1.2,2.8-1.5C120,25.7,120.9,25.7,120.9,25.7z"/>
		<path class="st0" d="M122.1,19.8h0.9v8.1h-0.9V19.8z"/>
		<path class="st0" d="M124.3,23.9c0-2.5,1.9-4.2,4.2-4.2c2.4,0,4.2,1.8,4.2,4.2s-1.8,4.2-4.2,4.2C126.1,28,124.3,26.2,124.3,23.9
			L124.3,23.9z M125.2,23.8c0,1.9,1.4,3.4,3.3,3.4c1.9,0,3.3-1.6,3.3-3.4s-1.4-3.4-3.3-3.4C126.6,20.4,125.2,21.9,125.2,23.8
			L125.2,23.8z"/>
		<path class="st0" d="M139.7,26.6v-6.8h0.9v8.1h-0.9l-4.8-6.9v6.9H134v-8.1h0.9L139.7,26.6z"/>
		<path class="st0" d="M142.2,19.8h4.5v0.8h-3.6v2.8h3.6v0.8h-3.6v2.9h3.6v0.8h-4.5V19.8z"/>
		<path class="st0" d="M148.7,25.6c0.1,1.4,1.1,1.6,1.6,1.6c0.8,0,1.6-0.6,1.6-1.6c0-1.1-1-1.4-1.9-1.7c-0.7-0.2-2.1-0.6-2.1-2.2
			c0-1.4,1.2-2.2,2.4-2.2c1,0,2.2,0.6,2.3,2.1h-0.8c-0.1-0.5-0.4-1.3-1.4-1.3c-0.8,0-1.5,0.5-1.5,1.4c0,1,0.8,1.2,2,1.7
			c0.8,0.3,2,0.7,2,2.2c0,1.3-1,2.4-2.5,2.4c-1.4,0-2.5-0.9-2.6-2.4H148.7z"/>
	</g>
	<g>
		<g>
			<path class="st0" d="M24.3,10.3c-0.5-0.3-1.2-0.1-1.5,0.4l-2.4,4.2H15l-2.5-4.2c-0.3-0.5-1-0.7-1.5-0.4s-0.7,1-0.4,1.5l6.1,10.4
				c0.2,0.3,0.6,0.7,0.9,0.7l0,0c0.4,0,0.7-0.3,0.9-0.7l6.1-10.5C25,11.3,24.8,10.6,24.3,10.3z"/>
			<g>
				<path class="st0" d="M16.7,32.1C7.9,32.1,0.8,25,0.8,16.3c0-7.4,5-13.7,12.1-15.4c0.6-0.1,1.2,0.2,1.3,0.8S14,2.9,13.4,3
					C7.3,4.5,3,9.9,3,16.3C3,23.8,9.1,30,16.7,30s13.7-6.1,13.7-13.6c0-8.7,7.2-15.7,16-15.7c8.7,0,15.8,7.1,15.8,15.8
					c0,6.4-3.8,12.1-9.6,14.6c-0.6,0.2-1.2,0-1.4-0.6s0-1.2,0.6-1.4c5-2.2,8.3-7.1,8.3-12.6C60.1,9,54,2.8,46.5,2.8
					c-7.6,0-13.8,6.1-13.8,13.6C32.6,25,25.4,32.1,16.7,32.1z"/>
			</g>
		</g>
		<path class="st0" d="M40,22.8c0.5,0.3,1.2,0,1.5-0.5l2.4-4.3h5.4l2.5,4.3c0.3,0.5,1,0.8,1.5,0.4c0.5-0.3,0.7-1,0.4-1.5l-6.1-10.5
			c-0.2-0.3-0.6-0.8-0.9-0.8l0,0c-0.4,0-0.7,0.4-0.9,0.8l-6.1,10.5C39.3,21.7,39.5,22.5,40,22.8z"/>
	</g>
</g>
</svg>
