<?xml version="1.0" encoding="utf-8"?>
<!-- Generator: Adobe Illustrator 21.1.0, SVG Export Plug-In . SVG Version: 6.00 Build 0)  -->
<svg version="1.1" id="Capa_1" xmlns="http://www.w3.org/2000/svg" xmlns:xlink="http://www.w3.org/1999/xlink" x="0px" y="0px"
	 viewBox="0 0 403 534.4" style="enable-background:new 0 0 403 534.4;" xml:space="preserve">
<style type="text/css">
	.st0{fill:none;stroke:#00BCFF;stroke-width:8;stroke-linecap:round;stroke-linejoin:round;stroke-miterlimit:10;}
	.st1{fill:#F4F4F4;stroke:#00BCFF;stroke-width:8;stroke-linecap:round;stroke-linejoin:round;stroke-miterlimit:10;}
	.st2{fill:#00BCFF;stroke:#00BCFF;stroke-width:8;stroke-linecap:round;stroke-linejoin:round;stroke-miterlimit:10;}
</style>
<g>
	<polygon class="st0" points="371.9,502.7 41.2,502.7 41.2,131.9 138,35.6 371.9,35.6 	"/>
	<line class="st0" x1="99.8" y1="166.6" x2="320.4" y2="166.6"/>
	<line class="st0" x1="99.8" y1="214.4" x2="320.4" y2="214.4"/>
	<line class="st0" x1="99.8" y1="262.2" x2="320.4" y2="262.2"/>
	<line class="st0" x1="138.4" y1="118.8" x2="288.1" y2="118.8"/>
	<polygon class="st1" points="138.4,132.8 41.7,132.8 138.4,35.6 	"/>
	<g>
		<polygon class="st1" points="104.1,401.1 143.6,406.1 157,443.4 218.3,340.7 207.3,298.2 		"/>
		<polygon class="st1" points="270.1,405.1 309,403.7 223.6,294.3 199,332.7 253.1,442 		"/>
		<polygon class="st2" points="208.3,232 227.7,253.1 255.8,247.4 259.1,275.9 285.2,287.9 271.1,312.8 285.2,337.8 259.1,349.7 
			255.8,378.2 227.7,372.6 208.3,393.7 188.9,372.6 160.8,378.2 157.5,349.7 131.4,337.8 145.5,312.8 131.4,287.9 157.5,275.9 
			160.8,247.4 188.9,253.1 		"/>
		<path class="st1" d="M207.8,346.8c-18.8,0-34-15.2-34-34c0-18.8,15.2-34,34-34c18.8,0,34,15.2,34,34l0,0
			C241.7,331.6,226.5,346.8,207.8,346.8z"/>
	</g>
</g>
</svg>
