<?xml version="1.0" encoding="utf-8"?>
<!-- Generator: Adobe Illustrator 21.1.0, SVG Export Plug-In . SVG Version: 6.00 Build 0)  -->
<svg version="1.1" id="Capa_1" xmlns="http://www.w3.org/2000/svg" xmlns:xlink="http://www.w3.org/1999/xlink" x="0px" y="0px"
	 viewBox="0 0 507.9 605.5" style="enable-background:new 0 0 507.9 605.5;" xml:space="preserve">
<style type="text/css">
	.st0{fill:#00BCFF;stroke:#00BCFF;stroke-width:8;stroke-linecap:round;stroke-linejoin:round;stroke-miterlimit:10;}
	.st1{fill:#F4F4F4;stroke:#00BCFF;stroke-width:10;stroke-linecap:round;stroke-linejoin:round;stroke-miterlimit:10;}
	.st2{fill:#F4F4F4;stroke:#00BCFF;stroke-width:8;stroke-linecap:round;stroke-linejoin:round;stroke-miterlimit:10;}
	.st3{fill:#FFFFFF;stroke:#00BCFF;stroke-width:8;stroke-linecap:round;stroke-linejoin:round;stroke-miterlimit:10;}
	.st4{fill:none;stroke:#00BCFF;stroke-width:10;stroke-linecap:round;stroke-linejoin:round;stroke-miterlimit:10;}
</style>
<g>
	<g>
		<g>
			<g>
				<path class="st0" d="M478.3,568.7h-7.5c-10.9,0-19.8-3.4-26.4-10c-11.2-11.3-11.3-27.8-11.3-28.5v-19.9l-37.9-24.9l8.2-12.5
					l41.3,27.1c2.1,1.4,3.4,3.7,3.4,6.3v24c0,0,0.1,6.5,3.2,12.6c3.7,7.3,10.1,10.9,19.6,10.9h7.5V568.7z"/>
			</g>
			<g>
				<path class="st0" d="M304.5,568.7h7.5c10.9,0,19.8-3.4,26.4-10c11.2-11.3,11.3-27.8,11.3-28.5v-19.9l37.9-24.9l-8.2-12.5
					l-41.3,27.1c-2.1,1.4-3.4,3.7-3.4,6.3v24c0,0-0.1,6.5-3.2,12.6c-3.7,7.3-10.1,10.9-19.6,10.9h-7.5V568.7z"/>
			</g>
			<rect x="382.5" y="57.4" class="st0" width="17.7" height="511.2"/>
		</g>
		<path class="st1" d="M452.2,276.4L452.2,276.4c-17.7-26.5-16.7-61.4,2.4-86.9l4.1-5.4v-48l-37.3-12l-12-24h-35.7l-12,24l-37.3,12
			v48l4.1,5.4c19.1,25.5,20.1,60.3,2.4,86.9l0,0c-11.8,17.6-15.5,39.4-10.4,60l15.9,51.7h110.2l15.9-51.7
			C467.7,315.8,463.9,294,452.2,276.4z"/>
	</g>
	<g>
		<path class="st0" d="M267.9,41.7L267.9,41.7c-21.3-8.7-45.7-3.8-61.9,12.4l-38.6,38.6l33.4,33.4l70-70
			C275.3,51.7,273.7,44.1,267.9,41.7z"/>
		<path class="st2" d="M267.9,41.7L267.9,41.7c-21.3-8.7-45.7-3.8-61.9,12.4c0,0,17.8,21.3,64.8,2C275.3,51.7,273.7,44.1,267.9,41.7
			z"/>
		<path class="st1" d="M117.8,132.4L166.2,84c6.5-0.9,17.8,5.1,28,15.3c10.2,10.2,16.2,21.6,15.3,28l-48.4,48.4L117.8,132.4z"/>
		<path class="st0" d="M112.5,233.1c-7.8,1.1-21.4-6.1-33.7-18.4c-12.3-12.3-19.5-25.9-18.4-33.7l63.1-63.1
			c7.8-1.1,21.4,6.1,33.7,18.4c12.3,12.3,19.5,25.9,18.4,33.7L112.5,233.1z"/>
	</g>
	<g>
		<polygon class="st2" points="41.3,545.8 41.3,284.7 149.2,247.8 258.3,302.1 358.1,247.4 358.1,498.1 257.8,554 148.7,511.6 		"/>
		<polygon class="st3" points="41.4,521.5 357.4,299.2 357.5,278.5 41.3,501.8 		"/>
		<path class="st0" d="M237.4,214.9c-26.5,0-48,21.5-48,48c0,41.1,48,75.4,48,75.4s48-34.3,48-75.4
			C285.3,236.4,263.9,214.9,237.4,214.9z M237.4,284.6c-12,0-21.7-9.7-21.7-21.7c0-12,9.7-21.7,21.7-21.7c12,0,21.7,9.7,21.7,21.7
			C259.1,274.9,249.4,284.6,237.4,284.6z"/>
		<path class="st0" d="M86.9,370.7c-12.9,0-23.3,10.4-23.3,23.3c0,20,23.3,36.6,23.3,36.6s23.3-16.7,23.3-36.6
			C110.2,381.2,99.8,370.7,86.9,370.7z M86.9,407.4c-7.4,0-13.3-6-13.3-13.3c0-7.4,6-13.3,13.3-13.3s13.3,6,13.3,13.3
			C100.2,401.4,94.3,407.4,86.9,407.4z"/>
		<polygon class="st4" points="41.3,545.8 41.3,284.7 149.2,247.8 258.3,302.1 358.1,247.4 358.1,498.1 257.8,554 148.7,511.6 		"/>
		<line class="st4" x1="149.2" y1="247.8" x2="149.2" y2="510.5"/>
		<line class="st4" x1="258.4" y1="550.1" x2="258.4" y2="302.1"/>
	</g>
</g>
</svg>
