<?xml version="1.0" encoding="utf-8"?>
<!-- Generator: Adobe Illustrator 21.1.0, SVG Export Plug-In . SVG Version: 6.00 Build 0)  -->
<svg version="1.1" id="Capa_1" xmlns="http://www.w3.org/2000/svg" xmlns:xlink="http://www.w3.org/1999/xlink" x="0px" y="0px"
	 viewBox="0 0 457.7 474.9" style="enable-background:new 0 0 457.7 474.9;" xml:space="preserve">
<style type="text/css">
	.st0{fill:#00BCFF;stroke:#00BCFF;stroke-width:8;stroke-linecap:round;stroke-linejoin:round;stroke-miterlimit:10;}
	.st1{fill:#F4F4F4;stroke:#00BCFF;stroke-width:8;stroke-linecap:round;stroke-linejoin:round;stroke-miterlimit:10;}
	.st2{fill:none;stroke:#00BCFF;stroke-width:8;stroke-linecap:round;stroke-linejoin:round;stroke-miterlimit:10;}
	.st3{fill:#F4F4F4;stroke:#00BCFF;stroke-width:7;stroke-linecap:round;stroke-linejoin:round;stroke-miterlimit:10;}
</style>
<g>
	<polyline class="st0" points="216.2,371.1 216.2,121.2 241.8,121.2 241.8,371.1 	"/>
</g>
<path class="st1" d="M157.2,421.7c0,0,8.1-51.2,71.2-51.2c64.3,0,71.2,51.2,71.2,51.2"/>
<polygon class="st1" points="87.4,120.2 369.9,120.2 369.9,108.2 242.8,84.9 214.5,84.9 87.4,108.2 "/>
<g>
	<path class="st0" d="M292.7,280.7h132.4c0,0,2.5,46.9-66.2,46.9S292.7,280.7,292.7,280.7z"/>
	<line class="st2" x1="292.7" y1="280.7" x2="355.3" y2="168.8"/>
	<line class="st2" x1="424.8" y1="280.7" x2="362.2" y2="168.8"/>
	<circle class="st1" cx="358.9" cy="156.7" r="11.9"/>
	<line class="st2" x1="358.9" y1="144.8" x2="358.9" y2="125.6"/>
</g>
<g>
	<path class="st0" d="M32.9,280.7h132.4c0,0,2.5,46.9-66.2,46.9S32.9,280.7,32.9,280.7z"/>
	<line class="st2" x1="32.9" y1="280.7" x2="95.5" y2="168.8"/>
	<line class="st2" x1="165" y1="280.7" x2="102.4" y2="168.8"/>
	<circle class="st1" cx="99.1" cy="156.7" r="11.9"/>
	<line class="st2" x1="99.1" y1="144.8" x2="99.1" y2="125.6"/>
</g>
<path class="st3" d="M228.4,34.1c-14.1,0-25.6,11.5-25.6,25.6c0,14.1,11.5,25.6,25.6,25.6c14.1,0,25.6-11.5,25.6-25.6
	C254,45.6,242.6,34.1,228.4,34.1z M228.4,72.5c-7.1,0-12.8-5.7-12.8-12.8c0-7.1,5.7-12.8,12.8-12.8c7.1,0,12.8,5.7,12.8,12.8
	C241.2,66.8,235.5,72.5,228.4,72.5z"/>
<polygon class="st0" points="331.6,421.7 177.2,421.7 125.2,421.7 125.2,440.7 331.6,440.7 "/>
</svg>
